<svg xmlns="http://www.w3.org/2000/svg" xmlns:xlink="http://www.w3.org/1999/xlink" version="1.1" width="1000" height="1000" viewBox="0 0 1000 1000" xml:space="preserve">
<desc>Created with Fabric.js 3.5.0</desc>
<defs>
</defs>
<rect x="0" y="0" width="100%" height="100%" fill="#D6DAE0"/>
<g transform="matrix(0.1953 0 0 -0.1953 499.944 511.4547)" id="887126">
<path style="stroke: none; stroke-width: 1; stroke-dasharray: none; stroke-linecap: butt; stroke-dashoffset: 0; stroke-linejoin: miter; stroke-miterlimit: 4; is-custom-font: none; font-file-url: none; fill: rgb(0,0,0); fill-rule: nonzero; opacity: 1;" vector-effect="non-scaling-stroke" transform=" translate(-2559.7232, -2559.8133)" d="M 106 5110 c -79 -24 -121 -125 -82 -198 c 8 -15 537 -549 1175 -1187 l 1161 -1160 l -1170 -1170 c -663 -664 -1174 -1182 -1180 -1198 c -23 -62 1 -136 54 -168 c 35 -21 105 -25 139 -8 c 12 6 547 536 1189 1177 l 1168 1167 l 1177 -1176 c 1295 -1294 1202 -1209 1292 -1173 c 67 26 100 89 86 162 c -6 33 -135 166 -1181 1212 l -1174 1175 l 1161 1160 c 638 638 1167 1172 1175 1187 c 56 106 -50 234 -164 197 c -29 -9 -278 -252 -1205 -1178 l -1167 -1166 l -1168 1168 c -1265 1265 -1197 1203 -1286 1177 z" stroke-linecap="round"/>
</g>
</svg>